HIERARCHY
ROOT Hips
{
  OFFSET 0 0 0
  CHANNELS 6 Xposition Yposition Zposition Zrotation Xrotation Yrotation
  JOINT Spine
  {
    OFFSET 0 8.83416 0
    CHANNELS 3 Zrotation Xrotation Yrotation
    JOINT Spine1
    {
      OFFSET 0 17.8555 0
      CHANNELS 3 Zrotation Xrotation Yrotation
      JOINT Neck
      {
        OFFSET 0 17.7822 1.61656
        CHANNELS 3 Zrotation Xrotation Yrotation
        JOINT Head
        {
          OFFSET 0 15.0827 -2.15467
          CHANNELS 3 Zrotation Xrotation Yrotation
          End Site
          {
            OFFSET 0 26.9334 0
          }
        }
      }
      JOINT LeftShoulder
      {
        OFFSET 4.28078 15.9895 -0.632416
        CHANNELS 3 Zrotation Xrotation Yrotation
        JOINT LeftArm
        {
          OFFSET 11.7359 0 0
          CHANNELS 3 Zrotation Xrotation Yrotation
          JOINT LeftForeArm
          {
            OFFSET 33.15 0 0
            CHANNELS 3 Zrotation Xrotation Yrotation
            JOINT LeftHand
            {
              OFFSET 28.5724 0 0
              CHANNELS 3 Zrotation Xrotation Yrotation
              End Site
              {
                OFFSET 16.1601 0 0
              }
            }
          }
        }
      }
      JOINT RightShoulder
      {
        OFFSET -4.29063 15.9895 -0.632416
        CHANNELS 3 Zrotation Xrotation Yrotation
        JOINT RightArm
        {
          OFFSET -11.7359 0 0
          CHANNELS 3 Zrotation Xrotation Yrotation
          JOINT RightForeArm
          {
            OFFSET -33.15 0 0
            CHANNELS 3 Zrotation Xrotation Yrotation
            JOINT RightHand
            {
              OFFSET -28.5724 0 0
              CHANNELS 3 Zrotation Xrotation Yrotation
              End Site
              {
                OFFSET -16.1601 0 0
              }
            }
          }
        }
      }
    }
  }
  JOINT LeftUpLeg
  {
    OFFSET 10.7734 0 0
    CHANNELS 3 Zrotation Xrotation Yrotation
    JOINT LeftLeg
    {
      OFFSET 0 -54.0627 0
      CHANNELS 3 Zrotation Xrotation Yrotation
      JOINT LeftFoot
      {
        OFFSET 0 -48.9411 0
        CHANNELS 3 Zrotation Xrotation Yrotation
        JOINT LeftToeBase
        {
          OFFSET 0 -7.00269 16.1601
          CHANNELS 3 Zrotation Xrotation Yrotation
          End Site
          {
            OFFSET 0 0 4.30935
          }
        }
      }
    }
  }
  JOINT RightUpLeg
  {
    OFFSET -10.7734 0 0
    CHANNELS 3 Zrotation Xrotation Yrotation
    JOINT RightLeg
    {
      OFFSET 0 -54.0627 0
      CHANNELS 3 Zrotation Xrotation Yrotation
      JOINT RightFoot
      {
        OFFSET 0 -48.9411 0
        CHANNELS 3 Zrotation Xrotation Yrotation
        JOINT RightToeBase
        {
          OFFSET 0 -7.00269 16.1601
          CHANNELS 3 Zrotation Xrotation Yrotation
          End Site
          {
            OFFSET 0 0 4.30935
          }
        }
      }
    }
  }
}
MOTION
Frames:	15
Frame Time:	0.00833333
-51.2709 81.3888 7.49394 91.5425 -2.44932 -91.7045 -10.5282 -34.9199 -6.78889 0.618916 -0.703287 -3.46534 -12.1526 46.6407 0.621958 43.3608 -78.9415 34.6987 18.8696 -5.0001 11.0682 -13.9549 -18.6764 -11.1494 27.0979 -26.4985 -46.8206 31.6785 -13.687 5.90625 -21.0165 -1.25704 2.68682 16.8812 -27.5498 5.80401 -22.9915 -29.9952 31.12 -37.7007 -17.9479 -19.4831 15.9417 2.8547 12.1753 -9.95488 46.5459 19.0975 -11.1509 16.2561 6.70643 -0 -6.36111e-015 -0 -20.0093 -1.40401 -15.007 12.1795 52.6334 -6.0346 20.2028 19.7642 -9.78421 6.36111e-015 3.18055e-015 -3.18055e-015 
-51.27 81.3995 7.49288 91.7538 -2.47301 -91.7068 -10.4374 -34.8752 -6.69306 0.479476 -0.640332 -3.40392 -12.033 46.771 0.392973 43.488 -79.1731 34.7036 18.9119 -4.97056 11.2369 -14.0008 -19.8447 -11.0781 25.9924 -26.785 -46.9293 31.8828 -14.1917 6.8481 -20.9704 -1.46048 2.53056 16.8448 -28.2494 5.63564 -20.7589 -31.7006 31.3707 -40.5731 -19.4101 -20.7393 15.7432 2.67092 12.2314 -9.20411 45.4659 18.3666 -12.0003 15.916 7.0957 3.18055e-015 1.59028e-015 -3.18055e-015 -20.1744 -1.43444 -14.3422 13.0632 52.6413 -6.77531 20.2389 20.7311 -9.75991 -3.18055e-015 -1.59028e-015 -0 
-51.2711 81.402 7.49479 91.9163 -2.48593 -91.7519 -10.3532 -34.8055 -6.60226 0.426568 -0.569421 -3.34721 -11.9261 46.9614 0.163449 43.6787 -79.284 34.6962 18.9233 -5.09084 11.2417 -13.845 -20.7251 -10.7545 24.8299 -27.2729 -46.9318 31.9676 -14.9683 7.80256 -20.9424 -1.59827 2.52573 16.6492 -29.1094 5.42613 -18.86 -33.3274 31.6998 -43.1186 -20.3669 -22.8381 15.5566 2.55367 12.1239 -8.65753 44.2591 18.2502 -12.1773 15.6499 6.97253 7.95139e-015 0 -0 -20.3309 -1.47005 -13.7824 13.632 52.5664 -7.07338 20.2749 21.8191 -9.81559 0 0 -0 
-51.2725 81.41 7.50798 92.0802 -2.50893 -91.8234 -10.2425 -34.7415 -6.50527 0.377951 -0.484215 -3.29201 -11.7719 47.1638 0.0869615 44.2387 -79.5243 35.2571 18.9793 -5.22388 11.2089 -13.7224 -21.9668 -10.5263 23.5091 -27.5733 -46.9063 32.1976 -15.5699 8.86809 -20.941 -1.85072 2.57836 16.3871 -29.9687 5.24725 -17.5462 -34.8513 31.8521 -44.4549 -21.1158 -25.361 15.3658 2.42207 11.9394 -8.20583 43.0863 17.5668 -12.049 15.1243 7.10791 3.18055e-015 4.77083e-015 -0 -20.5132 -1.5344 -13.3619 13.9971 52.4133 -7.30458 20.9191 22.6167 -10.1978 0 0 -0 
-51.274 81.4295 7.53171 92.2 -2.52671 -91.9113 -10.1331 -34.5933 -6.42117 0.356859 -0.478551 -3.2569 -11.7797 47.4703 0.0514052 46.2627 -79.6341 37.0574 19.0722 -5.31719 11.1899 -13.6417 -23.1005 -10.3777 22.4433 -27.8701 -46.6126 32.7582 -16.0187 10.1374 -20.8956 -2.03345 2.82331 15.9719 -30.6219 4.9063 -16.0376 -37.1198 32.3139 -46.6285 -22.4763 -27.8007 15.186 2.29956 11.7333 -7.77734 42 16.6489 -11.6812 14.3902 7.32696 3.18055e-015 -4.77083e-015 -3.18055e-015 -20.7221 -1.56287 -13.094 14.1804 52.1333 -7.27545 21.6106 23.2248 -10.7222 -3.18055e-015 -1.59028e-015 -1.59028e-015 
-51.275 81.4475 7.56415 92.3459 -2.55601 -92.0347 -10.0114 -34.5898 -6.43815 0.387927 -0.403108 -3.31248 -11.8906 47.9869 0.169071 48.9589 -79.8559 39.6317 19.1447 -5.57142 11.1549 -13.4494 -24.1392 -10.037 21.351 -28.1965 -46.1415 32.8014 -16.7135 10.9419 -20.8945 -2.18994 3.47156 15.4921 -31.228 4.45513 -15.3304 -39.3041 32.3126 -46.8312 -24.2429 -29.9637 14.9371 2.10874 11.6468 -7.129 40.9681 15.5931 -11.1017 13.6836 7.34379 -1.59028e-015 0 -3.18055e-015 -20.9301 -1.6955 -13.0608 13.9594 51.8922 -7.12333 22.2629 23.5814 -11.0114 9.54166e-015 0 -1.59028e-015 
-51.2751 81.4651 7.60818 92.4581 -2.58349 -92.1773 -9.9063 -34.4576 -6.38484 0.304071 -0.575611 -3.30452 -11.2548 48.7637 0.159237 50.0039 -80.275 40.9073 19.3781 -5.28675 10.9544 -13.433 -25.5233 -9.97882 20.044 -28.9365 -45.7796 32.9661 -17.7771 12.1683 -20.5451 -2.08752 4.01584 14.8937 -31.8561 4.15232 -14.9356 -41.4074 32.1547 -46.1055 -26.3454 -31.6967 14.7071 1.99928 11.3576 -6.75643 39.8607 15.0836 -10.3969 12.7777 7.37386 -4.77083e-015 -2.38542e-015 6.36111e-015 -21.1638 -1.79163 -12.9848 13.8757 51.4978 -7.30704 22.5267 23.5709 -11.0501 0 1.59028e-015 -0 
-51.2672 81.4944 7.66393 92.5522 -2.59681 -92.3252 -9.78617 -34.3352 -6.35823 0.378764 -0.477983 -3.32683 -11.4294 48.9326 0.20266 52.5643 -80.0118 43.074 19.5265 -5.37812 11.1077 -13.5602 -26.7625 -10.2451 18.716 -29.814 -45.3063 33.0725 -19.0558 13.2266 -20.5984 -2.07648 4.00598 15.0266 -32.2409 4.61079 -15.0523 -43.2912 31.8708 -45.6062 -28.1108 -33.2994 14.4962 1.85904 11.182 -6.35598 38.9156 14.5548 -9.90132 11.7272 7.72587 1.59028e-015 -6.36111e-015 -3.18055e-015 -21.4025 -1.8927 -12.9588 13.7778 51.018 -7.20895 22.5267 23.1301 -11.1476 3.18055e-015 0 1.59028e-015 
-51.2517 81.5367 7.70176 92.6343 -2.64314 -92.5568 -9.74315 -34.2335 -6.36632 0.591347 -0.347284 -3.35757 -11.6612 49.0594 0.389129 54.7737 -79.7694 45.0632 19.6185 -5.60197 11.2579 -13.5585 -27.7102 -10.4634 17.5933 -30.8164 -44.5138 32.7045 -20.4668 14.3512 -20.8757 -1.96299 3.9 15.526 -32.6626 5.40894 -15.2163 -44.9075 31.6512 -44.4922 -30.1058 -34.0583 14.2762 1.71819 11.1239 -5.96379 38.0867 14.4184 -9.28289 10.795 7.7255 -3.18055e-015 -1.59028e-015 -9.54166e-015 -21.6431 -2.08223 -13.0319 13.3948 50.5921 -6.92117 23.0517 22.0919 -12.2691 3.18055e-015 -6.36111e-015 -1.59028e-015 
-51.2491 81.5726 7.74592 92.7085 -2.63292 -92.7427 -9.62028 -34.2006 -6.44871 0.743142 -0.200867 -3.48158 -11.6352 49.2098 0.591409 55.3797 -79.681 45.7679 19.5314 -5.72767 11.4984 -13.2826 -28.0199 -10.6398 16.6733 -32.364 -43.6557 32.5723 -22.2894 15.7367 -21.0634 -1.86952 3.98875 16.007 -32.6886 6.10452 -15.2162 -46.2585 31.9609 -44.1793 -31.6747 -34.4402 14.1161 1.51404 11.1481 -5.51378 37.4656 14.2606 -8.83687 9.90136 7.83239 1.59028e-015 -3.18055e-015 -0 -21.8391 -2.21695 -12.9883 13.3089 49.9715 -6.90866 22.4029 21.0462 -11.9464 -6.36111e-015 -1.59028e-015 3.18055e-015 
-51.2478 81.5739 7.80254 92.623 -2.61204 -92.9408 -9.46791 -34.0677 -6.50152 0.89318 -0.0795167 -3.59424 -12.2006 49.263 0.940535 57.2009 -79.0694 47.2407 19.6402 -5.75288 11.6628 -13.3661 -28.9491 -11.043 15.5701 -33.585 -42.8073 32.194 -23.9208 16.8326 -21.2421 -1.78961 4.26527 16.28 -32.4201 6.45253 -15.1057 -46.9423 32.5217 -44.0632 -32.6091 -34.1842 13.9725 1.52789 10.8023 -5.40375 36.8742 14.3204 -8.44459 8.90944 8.39843 4.77083e-015 0 -0 -22.0529 -2.16003 -12.8218 13.3121 49.2666 -6.6501 21.8213 19.5973 -12.1485 1.76556e-031 -3.18055e-015 3.18055e-015 
-51.247 81.5668 7.86263 92.4998 -2.59005 -93.1485 -9.35609 -33.9967 -6.54008 1.06656 0.163414 -3.67582 -12.378 49.3069 1.14861 58.0747 -78.7244 47.986 19.8268 -5.94355 11.6685 -13.4505 -29.4863 -11.3248 14.6391 -35.1383 -41.9172 31.7188 -25.8207 18.1022 -21.3139 -1.94376 4.64789 16.2099 -31.5897 6.35702 -14.8173 -46.9965 33.3596 -44.6017 -32.8349 -33.2687 13.8628 1.50016 10.9762 -4.99368 36.5821 13.9809 -7.99608 8.11201 8.59028 5.56597e-015 3.97569e-016 3.18055e-015 -22.2372 -2.09996 -12.717 13.1899 48.4669 -6.95798 21.2113 18.2442 -11.9654 3.18055e-015 -1.59028e-015 -3.18055e-015 
-51.2472 81.586 7.9098 92.4983 -2.59759 -93.354 -9.26594 -33.9914 -6.59384 1.16455 0.229294 -3.75852 -12.5508 49.3416 1.39215 58.3509 -78.2984 48.1721 20.0332 -6.06607 11.6415 -13.5407 -29.9587 -11.6944 13.6376 -36.6776 -41.1008 31.5761 -27.6783 19.2903 -21.2631 -2.05657 5.04339 16.0803 -29.7481 6.01094 -15.0002 -46.7398 34.2078 -45.4225 -32.5055 -32.2815 13.7394 1.24395 11.5221 -4.28971 36.6456 12.9761 -7.85393 7.44115 8.81633 -7.95139e-016 -5.56597e-015 -3.18055e-015 -22.4478 -2.1831 -12.7049 13.1821 47.6703 -6.83834 20.533 16.5891 -12.3819 3.18055e-015 -7.95139e-015 -0 
-51.2567 81.5798 7.95253 92.4228 -2.5767 -93.5613 -9.3017 -33.9495 -6.67107 1.44553 0.250163 -3.82928 -12.463 49.4121 1.531 57.893 -78.1232 47.8146 20.2162 -6.09667 11.5486 -13.7712 -30.211 -12.1439 12.6476 -38.266 -40.4675 31.8184 -29.4836 20.5072 -21.2216 -2.03446 5.34077 15.9391 -28.4338 5.9567 -15.294 -45.8812 34.7858 -45.1446 -32.1601 -30.2678 13.7503 1.05688 11.5354 -4.22563 36.8822 12.3099 -7.63282 6.74351 9.36389 -7.95139e-016 1.98785e-015 -6.36111e-015 -22.6137 -2.17302 -12.6762 13.1008 46.8415 -7.00262 20.0734 14.8673 -12.6517 9.54166e-015 1.59028e-015 -6.36111e-015 
-51.2656 81.5456 8.01045 92.2387 -2.54468 -93.7663 -9.30381 -33.9254 -6.65177 1.7442 0.443175 -3.81516 -12.4154 49.2543 1.5551 57.2745 -77.8917 47.1812 20.2978 -6.38623 11.2073 -13.8846 -30.4344 -12.4489 11.4469 -39.6898 -40.1058 32.444 -31.0476 21.7894 -21.3202 -1.90843 5.21147 16.0742 -27.1176 6.26455 -15.8005 -44.9181 35.3188 -45.3245 -31.583 -28.0762 13.4494 2.40383 11.5209 -3.98329 34.177 11.3387 -7.30302 6.17804 9.81186 6.36111e-015 -7.95139e-016 -1.27222e-014 -22.7707 -2.04617 -12.628 13.0537 45.9903 -7.02959 19.3646 13.1286 -12.9329 6.36111e-015 1.59028e-015 -0 
